<svg width="41" height="40" viewBox="0 0 41 40" fill="none" xmlns="http://www.w3.org/2000/svg">
<mask id="path-2-inside-1_0_18" fill="white">
<path d="M30.9474 40H9.75026C6.30573 40 3.16405 37.3504 2.59627 33.9437L0.079105 18.8787C-0.318339 16.5319 0.817234 13.5227 2.6909 12.0275L15.8066 1.52356C18.3427 -0.520439 22.3359 -0.501494 24.8909 1.5425L38.0067 12.0275C39.8615 13.5227 40.997 16.5319 40.6185 18.8787L38.1014 33.9437C37.5336 37.2936 34.3351 40 30.9474 40ZM20.3299 2.86734C19.3269 2.86734 18.3236 3.17009 17.5855 3.7568L4.46993 14.2608C3.39116 15.1314 2.65307 17.0618 2.88018 18.4245L5.39732 33.4895C5.73799 35.4767 7.72517 37.1611 9.75026 37.1611H30.9474C32.9724 37.1611 34.9595 35.4767 35.3001 33.4706L37.8173 18.4055C38.0444 17.0429 37.2875 15.0935 36.2277 14.2418L23.112 3.7568C22.355 3.17009 21.3519 2.86734 20.3299 2.86734Z"/>
</mask>
<path d="M30.9474 40H9.75026C6.30573 40 3.16405 37.3504 2.59627 33.9437L0.079105 18.8787C-0.318339 16.5319 0.817234 13.5227 2.6909 12.0275L15.8066 1.52356C18.3427 -0.520439 22.3359 -0.501494 24.8909 1.5425L38.0067 12.0275C39.8615 13.5227 40.997 16.5319 40.6185 18.8787L38.1014 33.9437C37.5336 37.2936 34.3351 40 30.9474 40ZM20.3299 2.86734C19.3269 2.86734 18.3236 3.17009 17.5855 3.7568L4.46993 14.2608C3.39116 15.1314 2.65307 17.0618 2.88018 18.4245L5.39732 33.4895C5.73799 35.4767 7.72517 37.1611 9.75026 37.1611H30.9474C32.9724 37.1611 34.9595 35.4767 35.3001 33.4706L37.8173 18.4055C38.0444 17.0429 37.2875 15.0935 36.2277 14.2418L23.112 3.7568C22.355 3.17009 21.3519 2.86734 20.3299 2.86734Z" fill="#292D32"/>
<path d="M2.59627 33.9437L6.54184 33.2861L6.54158 33.2845L2.59627 33.9437ZM0.079105 18.8787L4.02442 18.2195L4.02295 18.2108L0.079105 18.8787ZM2.6909 12.0275L5.18583 15.1541L5.19134 15.1497L2.6909 12.0275ZM15.8066 1.52356L18.307 4.64572L18.3166 4.63798L15.8066 1.52356ZM24.8909 1.5425L22.3921 4.66598L22.3932 4.66687L24.8909 1.5425ZM38.0067 12.0275L40.5171 8.91338L40.5108 8.90826L40.5044 8.90317L38.0067 12.0275ZM40.6185 18.8787L44.5638 19.5379L44.5657 19.5268L44.5675 19.5156L40.6185 18.8787ZM38.1014 33.9437L42.0451 34.6121L42.0467 34.6029L38.1014 33.9437ZM17.5855 3.7568L15.0965 0.625503L15.0908 0.630071L15.085 0.63466L17.5855 3.7568ZM4.46993 14.2608L1.96948 11.1386L1.96366 11.1433L1.95786 11.148L4.46993 14.2608ZM2.88018 18.4245L-1.0654 19.0821L-1.06513 19.0837L2.88018 18.4245ZM5.39732 33.4895L1.45201 34.1487L1.45341 34.157L1.45483 34.1653L5.39732 33.4895ZM35.3001 33.4706L39.2437 34.1402L39.2454 34.1298L35.3001 33.4706ZM37.8173 18.4055L41.7626 19.0647L41.7629 19.0631L37.8173 18.4055ZM36.2277 14.2418L38.7333 11.1238L38.7254 11.1175L36.2277 14.2418ZM23.112 3.7568L25.6097 0.63245L25.5862 0.613614L25.5623 0.595136L23.112 3.7568ZM30.9474 36H9.75026V44H30.9474V36ZM9.75026 36C8.25482 36 6.78713 34.7579 6.54184 33.2861L-1.34931 34.6013C-0.459042 39.9429 4.35663 44 9.75026 44V36ZM6.54158 33.2845L4.02441 18.2195L-3.8662 19.5379L-1.34904 34.6029L6.54158 33.2845ZM4.02295 18.2108C3.96704 17.8807 4.00074 17.2696 4.27242 16.5547C4.54397 15.8402 4.92346 15.3634 5.18583 15.1541L0.195972 8.90098C-1.41533 10.1868 -2.54046 11.9622 -3.20574 13.7127C-3.87091 15.463 -4.20627 17.5299 -3.86474 19.5466L4.02295 18.2108ZM5.19134 15.1497L18.307 4.64571L13.3061 -1.59859L0.190459 8.90538L5.19134 15.1497ZM18.3166 4.63798C19.3669 3.79149 21.277 3.7739 22.3921 4.66598L27.3897 -1.58097C23.3948 -4.77689 17.3185 -4.83237 13.2965 -1.59086L18.3166 4.63798ZM22.3932 4.66687L35.5091 15.1519L40.5044 8.90317L27.3886 -1.58186L22.3932 4.66687ZM35.4963 15.1417C35.7551 15.3503 36.1358 15.8307 36.411 16.5547C36.6859 17.278 36.7246 17.9007 36.6695 18.2418L44.5675 19.5156C44.891 17.5099 44.5511 15.4545 43.8892 13.7127C43.2275 11.9717 42.1131 10.1999 40.5171 8.91338L35.4963 15.1417ZM36.6732 18.2195L34.1561 33.2845L42.0467 34.6029L44.5638 19.5379L36.6732 18.2195ZM34.1576 33.2753C33.9148 34.7081 32.3771 36 30.9474 36V44C36.2931 44 41.1524 39.8791 42.0451 34.6121L34.1576 33.2753ZM20.3299 -1.13266C18.5862 -1.13266 16.6603 -0.617534 15.0965 0.625503L20.0745 6.88809C20.0184 6.93266 20.0082 6.92378 20.0709 6.90382C20.1325 6.88426 20.224 6.86734 20.3299 6.86734V-1.13266ZM15.085 0.63466L1.96948 11.1386L6.97039 17.3829L20.0859 6.87893L15.085 0.63466ZM1.95786 11.148C0.715108 12.1509 -0.0893509 13.5213 -0.551323 14.7308C-1.01277 15.9388 -1.32897 17.5007 -1.0654 19.0821L6.82575 17.7669C6.83845 17.8431 6.83905 17.8897 6.83902 17.902C6.83898 17.915 6.83816 17.9065 6.84236 17.8765C6.85146 17.8115 6.87541 17.7075 6.92202 17.5854C6.9686 17.4635 7.02062 17.3687 7.0585 17.3121C7.10096 17.2486 7.08857 17.2876 6.98201 17.3736L1.95786 11.148ZM-1.06513 19.0837L1.45201 34.1487L9.34263 32.8303L6.82548 17.7653L-1.06513 19.0837ZM1.45483 34.1653C2.12358 38.0664 5.7702 41.1611 9.75026 41.1611V33.1611C9.79811 33.1611 9.79343 33.1705 9.7385 33.1487C9.68264 33.1265 9.60452 33.0834 9.52346 33.0149C9.44238 32.9464 9.38627 32.8761 9.35451 32.8239C9.32315 32.7723 9.33159 32.7657 9.33981 32.8136L1.45483 34.1653ZM9.75026 41.1611H30.9474V33.1611H9.75026V41.1611ZM30.9474 41.1611C34.9366 41.1611 38.5787 38.0563 39.2437 34.1402L31.3566 32.8009C31.3633 32.7612 31.3693 32.7723 31.3373 32.8252C31.3049 32.8789 31.2488 32.9492 31.1687 33.0171C31.0886 33.085 31.0116 33.1275 30.9571 33.1492C30.9034 33.1705 30.8994 33.1611 30.9474 33.1611V41.1611ZM39.2454 34.1298L41.7626 19.0647L33.872 17.7463L31.3548 32.8114L39.2454 34.1298ZM41.7629 19.0631C42.0286 17.4685 41.6994 15.8968 41.2395 14.6987C40.7799 13.5015 39.9775 12.1236 38.7333 11.1238L33.7221 17.3599C33.657 17.3075 33.623 17.2702 33.6144 17.2605C33.6052 17.2502 33.6118 17.2563 33.6296 17.2829C33.6681 17.3405 33.7221 17.4386 33.7707 17.5654C33.8194 17.6923 33.8446 17.8003 33.8542 17.8675C33.8587 17.8985 33.8578 17.9068 33.8577 17.8925C33.8576 17.8791 33.8582 17.8291 33.8717 17.7479L41.7629 19.0631ZM38.7254 11.1175L25.6097 0.63245L20.6144 6.88114L33.73 17.3662L38.7254 11.1175ZM25.5623 0.595136C23.9988 -0.616627 22.0959 -1.13266 20.3299 -1.13266V6.86734C20.4509 6.86734 20.5508 6.8859 20.6187 6.90728C20.6868 6.92875 20.6943 6.94365 20.6618 6.91846L25.5623 0.595136Z" fill="black" mask="url(#path-2-inside-1_0_18)"/>
<mask id="path-4-inside-2_0_18" fill="white">
<path d="M20.349 28.0575C16.9613 28.0575 14.1981 25.2943 14.1981 21.9066C14.1981 18.5189 16.9613 15.7557 20.349 15.7557C23.7368 15.7557 26.5 18.5189 26.5 21.9066C26.5 25.2943 23.7368 28.0575 20.349 28.0575ZM20.349 18.5946C18.5321 18.5946 17.037 20.0897 17.037 21.9066C17.037 23.7235 18.5321 25.2186 20.349 25.2186C22.1659 25.2186 23.6611 23.7235 23.6611 21.9066C23.6611 20.0897 22.1659 18.5946 20.349 18.5946Z"/>
</mask>
<path d="M20.349 28.0575C16.9613 28.0575 14.1981 25.2943 14.1981 21.9066C14.1981 18.5189 16.9613 15.7557 20.349 15.7557C23.7368 15.7557 26.5 18.5189 26.5 21.9066C26.5 25.2943 23.7368 28.0575 20.349 28.0575ZM20.349 18.5946C18.5321 18.5946 17.037 20.0897 17.037 21.9066C17.037 23.7235 18.5321 25.2186 20.349 25.2186C22.1659 25.2186 23.6611 23.7235 23.6611 21.9066C23.6611 20.0897 22.1659 18.5946 20.349 18.5946Z" fill="#292D32"/>
<path d="M20.349 24.0575C19.1704 24.0575 18.1981 23.0852 18.1981 21.9066H10.1981C10.1981 27.5035 14.7522 32.0575 20.349 32.0575V24.0575ZM18.1981 21.9066C18.1981 20.728 19.1704 19.7557 20.349 19.7557V11.7557C14.7522 11.7557 10.1981 16.3097 10.1981 21.9066H18.1981ZM20.349 19.7557C21.5276 19.7557 22.5 20.728 22.5 21.9066H30.5C30.5 16.3097 25.9459 11.7557 20.349 11.7557V19.7557ZM22.5 21.9066C22.5 23.0852 21.5276 24.0575 20.349 24.0575V32.0575C25.9459 32.0575 30.5 27.5035 30.5 21.9066H22.5ZM20.349 14.5946C16.323 14.5946 13.037 17.8806 13.037 21.9066H21.037C21.037 22.1162 20.9479 22.2898 20.8401 22.3977C20.7323 22.5055 20.5586 22.5946 20.349 22.5946V14.5946ZM13.037 21.9066C13.037 25.9326 16.323 29.2186 20.349 29.2186V21.2186C20.5586 21.2186 20.7323 21.3077 20.8401 21.4155C20.9479 21.5233 21.037 21.697 21.037 21.9066H13.037ZM20.349 29.2186C24.3751 29.2186 27.6611 25.9326 27.6611 21.9066H19.6611C19.6611 21.697 19.7501 21.5233 19.858 21.4155C19.9658 21.3077 20.1394 21.2186 20.349 21.2186V29.2186ZM27.6611 21.9066C27.6611 17.8806 24.3751 14.5946 20.349 14.5946V22.5946C20.1394 22.5946 19.9658 22.5055 19.858 22.3977C19.7501 22.2898 19.6611 22.1162 19.6611 21.9066H27.6611Z" fill="black" mask="url(#path-4-inside-2_0_18)"/>
<rect width="40.6911" height="40" stroke="black"/>
</svg>
