<svg width="41" height="40" viewBox="0 0 41 40" fill="none" xmlns="http://www.w3.org/2000/svg">
<path d="M7.86914 33.7247L7.86756 33.7316C7.49456 35.3187 7.6369 36.2642 7.81973 36.7858C7.99674 37.2908 8.26355 37.5476 8.43095 37.6733C8.43954 37.6794 8.44847 37.6857 8.45774 37.692C8.64221 37.818 8.96236 37.9786 9.4702 37.9939C10.0221 38.0105 10.967 37.8602 12.3756 37.0246L12.3797 37.0222L12.3898 37.0162L12.3961 37.0125L17.9876 33.7136C17.9904 33.7119 17.9932 33.7102 17.996 33.7085C17.9983 33.7072 18.0005 33.7058 18.0028 33.7045C18.005 33.7032 18.0073 33.7018 18.0096 33.7005C18.7144 33.2854 19.5305 33.1759 20.1407 33.1757C20.1415 33.1757 20.1422 33.1757 20.143 33.1757C20.7655 33.1757 21.5821 33.2892 22.2878 33.699L22.2951 33.7032L22.2973 33.7045L7.86914 33.7247ZM7.86914 33.7247L8.67468 33.911M7.86914 33.7247L7.86933 33.7239M8.67468 33.911L7.86933 33.7239M8.67468 33.911L10.0049 28.1593M8.67468 33.911C8.24377 35.7658 8.54353 36.7401 8.93698 37.0211C9.33042 37.3021 10.3421 37.2834 11.9908 36.3279L17.5927 33.0117L10.0049 28.1593M7.86933 33.7239L9.19639 27.9858C9.19728 27.9821 9.19816 27.9785 9.19903 27.9748L10.0049 28.1593M7.86933 33.7239L8.07483 24.0378C8.61938 24.5869 8.93311 25.3034 9.09715 25.8707C9.25747 26.4251 9.38173 27.2065 9.19946 27.973L10.0049 28.1593M10.0049 28.1593C10.3609 26.6042 9.78007 24.5808 8.65595 23.4567L4.00958 18.8103L10.0049 28.1593ZM21.6878 34.7323C21.6886 34.7328 21.6894 34.7332 21.6902 34.7337L6.72613 33.4603C6.72591 33.4613 6.72568 33.4622 6.72546 33.4632C6.47416 34.5468 6.40244 35.5083 6.51537 36.3289C6.61669 37.0652 6.91859 38.0135 7.7345 38.6194L7.2508 39.2881L7.74129 38.6244C7.75227 38.6325 7.76334 38.6406 7.7745 38.6485C8.60422 39.2412 9.60052 39.2374 10.3382 39.1082C11.1448 38.9669 12.0332 38.6145 12.99 38.0604C12.9906 38.0601 12.9911 38.0598 12.9917 38.0594C12.9923 38.0591 12.993 38.0587 12.9937 38.0583L13.0017 38.0536L13.0097 38.0489L18.6023 34.7382L19.0166 35.4286L18.6074 34.7352L18.6115 34.7328L18.6199 34.7278L18.6283 34.7227C18.9749 34.5129 19.5204 34.356 20.1407 34.356C20.7535 34.356 21.3085 34.5097 21.6878 34.7323Z" fill="#292D32" stroke="black" stroke-width="4"/>
</svg>
