<svg width="43" height="42" viewBox="0 0 43 42" fill="none" xmlns="http://www.w3.org/2000/svg">
<path d="M32.203 0H10.7343C4.29373 0 0 3.70588 0 12.3529V29.6471C0 38.2941 4.29373 42 10.7343 42H32.203C38.6436 42 42.9373 38.2941 42.9373 29.6471V12.3529C42.9373 3.70588 38.6436 0 32.203 0ZM33.212 15.0459L26.4923 21.2224C25.0754 22.5318 23.272 23.1741 21.4687 23.1741C19.6653 23.1741 17.8405 22.5318 16.445 21.2224L9.7253 15.0459C9.0383 14.4035 8.93096 13.2176 9.46768 12.4271C10.0259 11.6365 11.0349 11.4882 11.7219 12.1306L18.4416 18.3071C20.0732 19.8141 22.8426 19.8141 24.4743 18.3071L31.194 12.1306C31.881 11.4882 32.9115 11.6118 33.4482 12.4271C34.0064 13.2176 33.899 14.4035 33.212 15.0459Z" fill="#292D32"/>
</svg>
