<svg width="43" height="40" viewBox="0 0 43 40" fill="none" xmlns="http://www.w3.org/2000/svg">
<mask id="path-1-inside-1_0_39" fill="white">
<path d="M21.0972 27.3537C17.0347 27.3537 13.7377 24.0567 13.7377 19.9942C13.7377 15.9318 17.0347 12.6348 21.0972 12.6348C25.1596 12.6348 28.4567 15.9318 28.4567 19.9942C28.4567 24.0567 25.1596 27.3537 21.0972 27.3537ZM21.0972 15.5786C18.6636 15.5786 16.6815 17.5607 16.6815 19.9942C16.6815 22.4278 18.6636 24.4099 21.0972 24.4099C23.5307 24.4099 25.5129 22.4278 25.5129 19.9942C25.5129 17.5607 23.5307 15.5786 21.0972 15.5786Z"/>
</mask>
<path d="M21.0972 27.3537C17.0347 27.3537 13.7377 24.0567 13.7377 19.9942C13.7377 15.9318 17.0347 12.6348 21.0972 12.6348C25.1596 12.6348 28.4567 15.9318 28.4567 19.9942C28.4567 24.0567 25.1596 27.3537 21.0972 27.3537ZM21.0972 15.5786C18.6636 15.5786 16.6815 17.5607 16.6815 19.9942C16.6815 22.4278 18.6636 24.4099 21.0972 24.4099C23.5307 24.4099 25.5129 22.4278 25.5129 19.9942C25.5129 17.5607 23.5307 15.5786 21.0972 15.5786Z" fill="#292D32"/>
<path d="M21.0972 23.3537C19.2439 23.3537 17.7377 21.8475 17.7377 19.9942H9.73769C9.73769 26.2658 14.8256 31.3537 21.0972 31.3537V23.3537ZM17.7377 19.9942C17.7377 18.141 19.2439 16.6348 21.0972 16.6348V8.63477C14.8256 8.63477 9.73769 13.7227 9.73769 19.9942H17.7377ZM21.0972 16.6348C22.9505 16.6348 24.4567 18.141 24.4567 19.9942H32.4567C32.4567 13.7227 27.3687 8.63477 21.0972 8.63477V16.6348ZM24.4567 19.9942C24.4567 21.8475 22.9505 23.3537 21.0972 23.3537V31.3537C27.3687 31.3537 32.4567 26.2658 32.4567 19.9942H24.4567ZM21.0972 11.5786C16.4545 11.5786 12.6815 15.3516 12.6815 19.9942H20.6815C20.6815 19.7699 20.8728 19.5786 21.0972 19.5786V11.5786ZM12.6815 19.9942C12.6815 24.6369 16.4545 28.4099 21.0972 28.4099V20.4099C20.8728 20.4099 20.6815 20.2186 20.6815 19.9942H12.6815ZM21.0972 28.4099C25.7398 28.4099 29.5129 24.6369 29.5129 19.9942H21.5129C21.5129 20.2186 21.3216 20.4099 21.0972 20.4099V28.4099ZM29.5129 19.9942C29.5129 15.3516 25.7398 11.5786 21.0972 11.5786V19.5786C21.3216 19.5786 21.5129 19.7699 21.5129 19.9942H29.5129Z" fill="black" mask="url(#path-1-inside-1_0_39)"/>
<path d="M32.6957 6.49163C32.5387 5.90287 32.1658 5.43186 31.6556 5.11786L32.4799 8.19903C32.7742 7.68877 32.8527 7.08039 32.6957 6.49163Z" fill="#292D32" stroke="black" stroke-width="4"/>
</svg>
