<svg width="38" height="42" viewBox="0 0 38 42" fill="none" xmlns="http://www.w3.org/2000/svg">
<path d="M26.5994 0.432961C25.7794 -0.410423 24.3594 0.165547 24.3594 1.33806V8.51711C24.3594 11.5204 26.8394 14.0094 29.8594 14.0094C31.7594 14.03 34.3994 14.03 36.6594 14.03C37.7994 14.03 38.3994 12.6517 37.5994 11.8289C34.7194 8.84623 29.5594 3.47737 26.5994 0.432961Z" fill="#292D32"/>
<path d="M36 16.8471H30.22C25.48 16.8471 21.62 12.877 21.62 8.00186V2.05703C21.62 0.925665 20.72 0 19.62 0H11.14C4.98 0 0 4.11407 0 11.4577V29.683C0 37.0266 4.98 41.1407 11.14 41.1407H26.86C33.02 41.1407 38 37.0266 38 29.683V18.9041C38 17.7728 37.1 16.8471 36 16.8471ZM18 32.3983H10C9.18 32.3983 8.5 31.6989 8.5 30.8555C8.5 30.0121 9.18 29.3127 10 29.3127H18C18.82 29.3127 19.5 30.0121 19.5 30.8555C19.5 31.6989 18.82 32.3983 18 32.3983ZM22 24.1702H10C9.18 24.1702 8.5 23.4708 8.5 22.6274C8.5 21.784 9.18 21.0846 10 21.0846H22C22.82 21.0846 23.5 21.784 23.5 22.6274C23.5 23.4708 22.82 24.1702 22 24.1702Z" fill="#292D32"/>
</svg>
