<svg width="35" height="35" viewBox="0 0 35 35" fill="none" xmlns="http://www.w3.org/2000/svg">
<path d="M33.6538 4.56522H1.34615C0.610256 4.56522 0 3.53043 0 2.28261C0 1.03478 0.610256 0 1.34615 0H33.6538C34.3897 0 35 1.03478 35 2.28261C35 3.53043 34.3897 4.56522 33.6538 4.56522Z" fill="#292D32"/>
<path d="M33.6538 19.7826H1.34615C0.610256 19.7826 0 18.7478 0 17.5C0 16.2522 0.610256 15.2174 1.34615 15.2174H33.6538C34.3897 15.2174 35 16.2522 35 17.5C35 18.7478 34.3897 19.7826 33.6538 19.7826Z" fill="#292D32"/>
<path d="M33.6538 35H1.34615C0.610256 35 0 33.9652 0 32.7174C0 31.4695 0.610256 30.4348 1.34615 30.4348H33.6538C34.3897 30.4348 35 31.4695 35 32.7174C35 33.9652 34.3897 35 33.6538 35Z" fill="#292D32"/>
</svg>
