<svg width="40" height="41" viewBox="0 0 40 41" fill="none" xmlns="http://www.w3.org/2000/svg">
<mask id="path-1-inside-1_0_12" fill="white">
<path d="M26.321 40.0809H26.0673C17.4033 40.0809 13.2274 36.666 12.5054 29.0167C12.4273 28.2167 13.0127 27.4947 13.8323 27.4166C14.6128 27.3386 15.3544 27.9435 15.4324 28.7435C15.9983 34.8708 18.8863 37.1539 26.0868 37.1539H26.3405C34.2825 37.1539 37.0925 34.3439 37.0925 26.4019V13.679C37.0925 5.73699 34.2825 2.92704 26.3405 2.92704H26.0868C18.8473 2.92704 15.9593 5.24915 15.4324 11.4935C15.3348 12.2936 14.6519 12.8985 13.8323 12.8204C13.0127 12.7619 12.4273 12.0399 12.4859 11.2398C13.1493 3.47342 17.3447 0 26.0673 0H26.321C35.9021 0 40 4.09785 40 13.679V26.4019C40 35.9831 35.9021 40.0809 26.321 40.0809Z"/>
</mask>
<path d="M26.321 40.0809H26.0673C17.4033 40.0809 13.2274 36.666 12.5054 29.0167C12.4273 28.2167 13.0127 27.4947 13.8323 27.4166C14.6128 27.3386 15.3544 27.9435 15.4324 28.7435C15.9983 34.8708 18.8863 37.1539 26.0868 37.1539H26.3405C34.2825 37.1539 37.0925 34.3439 37.0925 26.4019V13.679C37.0925 5.73699 34.2825 2.92704 26.3405 2.92704H26.0868C18.8473 2.92704 15.9593 5.24915 15.4324 11.4935C15.3348 12.2936 14.6519 12.8985 13.8323 12.8204C13.0127 12.7619 12.4273 12.0399 12.4859 11.2398C13.1493 3.47342 17.3447 0 26.0673 0H26.321C35.9021 0 40 4.09785 40 13.679V26.4019C40 35.9831 35.9021 40.0809 26.321 40.0809Z" fill="#292D32"/>
<path d="M12.5054 29.0167L16.4877 28.6408L16.4865 28.6283L12.5054 29.0167ZM13.8323 27.4166L14.2115 31.3986L14.2209 31.3977L14.2303 31.3968L13.8323 27.4166ZM15.4324 28.7435L19.4155 28.3757L19.4145 28.3654L19.4135 28.3551L15.4324 28.7435ZM15.4324 11.4935L19.403 11.9777L19.412 11.9039L19.4182 11.8298L15.4324 11.4935ZM13.8323 12.8204L14.2115 8.83844L14.1645 8.83395L14.1173 8.83058L13.8323 12.8204ZM12.4859 11.2398L8.50038 10.8994L8.49831 10.9236L8.49653 10.9479L12.4859 11.2398ZM26.321 36.0809H26.0673V44.0809H26.321V36.0809ZM26.0673 36.0809C22.1713 36.0809 20.0381 35.2987 18.8375 34.3186C17.7256 33.411 16.7875 31.8172 16.4877 28.6408L8.52308 29.3926C8.94527 33.8656 10.4561 37.8039 13.7787 40.516C17.0125 43.1557 21.2993 44.0809 26.0673 44.0809V36.0809ZM16.4865 28.6283C16.623 30.0278 15.5975 31.2666 14.2115 31.3986L13.4531 23.4346C10.4279 23.7227 8.23164 26.4056 8.52428 29.4051L16.4865 28.6283ZM14.2303 31.3968C12.7875 31.541 11.586 30.5128 11.4513 29.1319L19.4135 28.3551C19.1227 25.3742 16.4382 23.1361 13.4343 23.4365L14.2303 31.3968ZM11.4494 29.1114C11.7795 32.6855 12.8705 36.0783 15.7928 38.3857C18.5667 40.5761 22.2239 41.1539 26.0868 41.1539V33.1539C22.7493 33.1539 21.3622 32.5901 20.7505 32.1071C20.2871 31.7412 19.6513 30.9289 19.4155 28.3757L11.4494 29.1114ZM26.0868 41.1539H26.3405V33.1539H26.0868V41.1539ZM26.3405 41.1539C30.5886 41.1539 34.6629 40.4448 37.5232 37.5846C40.3834 34.7243 41.0925 30.65 41.0925 26.4019H33.0925C33.0925 30.0958 32.3965 31.3975 31.8663 31.9277C31.3361 32.4579 30.0344 33.1539 26.3405 33.1539V41.1539ZM41.0925 26.4019V13.679H33.0925V26.4019H41.0925ZM41.0925 13.679C41.0925 9.43093 40.3834 5.3566 37.5232 2.49634C34.6629 -0.36392 30.5886 -1.07296 26.3405 -1.07296V6.92704C30.0344 6.92704 31.3361 7.62297 31.8663 8.15319C32.3965 8.68342 33.0925 9.98507 33.0925 13.679H41.0925ZM26.3405 -1.07296H26.0868V6.92704H26.3405V-1.07296ZM26.0868 -1.07296C22.2012 -1.07296 18.5171 -0.484869 15.7359 1.75131C12.816 4.09905 11.7518 7.54013 11.4466 11.1572L19.4182 11.8298C19.6399 9.20252 20.2832 8.36036 20.7488 7.98597C21.3532 7.5 22.7329 6.92704 26.0868 6.92704V-1.07296ZM11.4618 11.0093C11.6039 9.84445 12.6899 8.69352 14.2115 8.83844L13.4531 16.8024C16.6138 17.1034 19.0658 14.7426 19.403 11.9777L11.4618 11.0093ZM14.1173 8.83058C15.6172 8.93772 16.5697 10.2408 16.4752 11.5317L8.49653 10.9479C8.28499 13.8389 10.4082 16.586 13.5473 16.8103L14.1173 8.83058ZM16.4713 11.5803C16.7481 8.34061 17.6889 6.71262 18.8048 5.78897C20.0059 4.7949 22.1469 4 26.0673 4V-4C21.2651 -4 16.9472 -3.05819 13.704 -0.373954C10.3758 2.3807 8.88709 6.37262 8.50038 10.8994L16.4713 11.5803ZM26.0673 4H26.321V-4H26.0673V4ZM26.321 4C30.6514 4 32.7915 4.94147 33.925 6.075C35.0585 7.20852 36 9.34862 36 13.679H44C44 8.42824 42.8925 3.72883 39.5819 0.418144C36.2712 -2.89255 31.5718 -4 26.321 -4V4ZM36 13.679V26.4019H44V13.679H36ZM36 26.4019C36 30.7323 35.0585 32.8724 33.925 34.0059C32.7915 35.1394 30.6514 36.0809 26.321 36.0809V44.0809C31.5718 44.0809 36.2712 42.9735 39.5819 39.6628C42.8925 36.3521 44 31.6527 44 26.4019H36Z" fill="black" mask="url(#path-1-inside-1_0_12)"/>
<mask id="path-3-inside-2_0_12" fill="white">
<path d="M25.8499 21.504H3.64356C2.8435 21.504 2.18004 20.8405 2.18004 20.0405C2.18004 19.2404 2.8435 18.577 3.64356 18.577H25.8499C26.65 18.577 27.3134 19.2404 27.3134 20.0405C27.3134 20.8405 26.65 21.504 25.8499 21.504Z"/>
</mask>
<path d="M25.8499 21.504H3.64356C2.8435 21.504 2.18004 20.8405 2.18004 20.0405C2.18004 19.2404 2.8435 18.577 3.64356 18.577H25.8499C26.65 18.577 27.3134 19.2404 27.3134 20.0405C27.3134 20.8405 26.65 21.504 25.8499 21.504Z" fill="#292D32"/>
<path d="M25.8499 17.504H3.64356V25.504H25.8499V17.504ZM3.64356 17.504C5.05264 17.504 6.18004 18.6314 6.18004 20.0405H-1.81996C-1.81996 23.0497 0.634361 25.504 3.64356 25.504V17.504ZM6.18004 20.0405C6.18004 21.4496 5.05264 22.577 3.64356 22.577V14.577C0.634361 14.577 -1.81996 17.0313 -1.81996 20.0405H6.18004ZM3.64356 22.577H25.8499V14.577H3.64356V22.577ZM25.8499 22.577C24.4408 22.577 23.3134 21.4496 23.3134 20.0405H31.3134C31.3134 17.0313 28.8591 14.577 25.8499 14.577V22.577ZM23.3134 20.0405C23.3134 18.6314 24.4408 17.504 25.8499 17.504V25.504C28.8591 25.504 31.3134 23.0497 31.3134 20.0405H23.3134Z" fill="black" mask="url(#path-3-inside-2_0_12)"/>
<mask id="path-5-inside-3_0_12" fill="white">
<path d="M7.99569 28.0413C7.62493 28.0413 7.25417 27.9047 6.96147 27.612L0.42442 21.0749C-0.141473 20.509 -0.141473 19.5724 0.42442 19.0065L6.96147 12.4694C7.52736 11.9035 8.46401 11.9035 9.02991 12.4694C9.5958 13.0353 9.5958 13.9719 9.02991 14.5378L3.52708 20.0407L9.02991 25.5435C9.5958 26.1094 9.5958 27.0461 9.02991 27.612C8.75672 27.9047 8.36644 28.0413 7.99569 28.0413Z"/>
</mask>
<path d="M7.99569 28.0413C7.62493 28.0413 7.25417 27.9047 6.96147 27.612L0.42442 21.0749C-0.141473 20.509 -0.141473 19.5724 0.42442 19.0065L6.96147 12.4694C7.52736 11.9035 8.46401 11.9035 9.02991 12.4694C9.5958 13.0353 9.5958 13.9719 9.02991 14.5378L3.52708 20.0407L9.02991 25.5435C9.5958 26.1094 9.5958 27.0461 9.02991 27.612C8.75672 27.9047 8.36644 28.0413 7.99569 28.0413Z" fill="#292D32"/>
<path d="M6.96147 27.612L4.13304 30.4404L6.96147 27.612ZM0.42442 21.0749L3.25285 18.2465L3.25285 18.2465L0.42442 21.0749ZM0.42442 19.0065L3.25285 21.8349L3.25285 21.8349L0.42442 19.0065ZM6.96147 12.4694L4.13304 9.64098L4.13304 9.64098L6.96147 12.4694ZM9.02991 14.5378L6.20148 11.7094L6.20147 11.7094L9.02991 14.5378ZM3.52708 20.0407L0.698646 17.2123L-2.12977 20.0407L0.698652 22.8691L3.52708 20.0407ZM9.02991 25.5435L11.8583 22.7151L9.02991 25.5435ZM9.02991 27.612L6.20148 24.7835L6.15273 24.8323L6.10569 24.8827L9.02991 27.612ZM7.99569 24.0413C8.62853 24.0413 9.29291 24.2865 9.78989 24.7835L4.13304 30.4404C5.21543 31.5228 6.62133 32.0413 7.99569 32.0413V24.0413ZM9.78989 24.7835L3.25285 18.2465L-2.40401 23.9033L4.13304 30.4404L9.78989 24.7835ZM3.25285 18.2465C4.24905 19.2427 4.24905 20.8387 3.25285 21.8349L-2.40401 16.178C-4.532 18.306 -4.532 21.7753 -2.40401 23.9033L3.25285 18.2465ZM3.25285 21.8349L9.7899 15.2978L4.13304 9.64098L-2.40401 16.178L3.25285 21.8349ZM9.78989 15.2978C8.79369 16.294 7.19768 16.294 6.20148 15.2978L11.8583 9.64098C9.73034 7.51298 6.26103 7.51298 4.13304 9.64098L9.78989 15.2978ZM6.20148 15.2978C5.20528 14.3016 5.20528 12.7056 6.20148 11.7094L11.8583 17.3663C13.9863 15.2383 13.9863 11.769 11.8583 9.64098L6.20148 15.2978ZM6.20147 11.7094L0.698646 17.2123L6.35551 22.8691L11.8583 17.3663L6.20147 11.7094ZM0.698652 22.8691L6.20148 28.3719L11.8583 22.7151L6.3555 17.2123L0.698652 22.8691ZM6.20148 28.3719C5.20528 27.3757 5.20528 25.7797 6.20148 24.7835L11.8583 30.4404C13.9863 28.3124 13.9863 24.8431 11.8583 22.7151L6.20148 28.3719ZM6.10569 24.8827C6.71051 24.2347 7.44934 24.0413 7.99569 24.0413V32.0413C9.28355 32.0413 10.8029 31.5747 11.9541 30.3412L6.10569 24.8827Z" fill="black" mask="url(#path-5-inside-3_0_12)"/>
</svg>
