<svg width="40" height="42" viewBox="0 0 40 42" fill="none" xmlns="http://www.w3.org/2000/svg">
<path d="M40 29.1893C40 36.6769 35.66 41.1407 28.38 41.1407H26C24.9 41.1407 24 40.215 24 39.0837V27.2146C24 26.6592 24.44 26.186 24.98 26.186L28.5 26.1243C28.78 26.1038 29.02 25.8981 29.08 25.6101L29.78 21.6811C29.84 21.3109 29.56 20.9612 29.18 20.9612L24.92 21.0229C24.36 21.0229 23.92 20.5703 23.9 20.0149L23.82 14.9752C23.82 14.6461 24.08 14.3581 24.42 14.3581L29.22 14.2758C29.56 14.2758 29.82 14.0084 29.82 13.6587L29.74 8.72181C29.74 8.37211 29.48 8.10472 29.14 8.10472L23.74 8.18702C20.42 8.24873 17.78 11.0463 17.84 14.4609L17.94 20.1178C17.96 20.6938 17.52 21.1463 16.96 21.1669L14.56 21.208C14.22 21.208 13.96 21.4754 13.96 21.8251L14.02 25.7335C14.02 26.0832 14.28 26.3506 14.62 26.3506L17.02 26.3095C17.58 26.3095 18.02 26.762 18.04 27.3174L18.22 39.0425C18.24 40.1944 17.34 41.1407 16.22 41.1407H11.62C4.34 41.1407 0 36.6769 0 29.1687V11.9514C0 4.46376 4.34 0 11.62 0H28.38C35.66 0 40 4.46376 40 11.9514V29.1893Z" fill="black"/>
</svg>
