<svg width="41" height="42" viewBox="0 0 41 42" fill="none" xmlns="http://www.w3.org/2000/svg">
<path d="M30.6419 0H10.214C4.57586 0 0 4.68534 0 10.4632V23.0275V25.1286C0 30.9065 4.57586 35.5918 10.214 35.5918H13.2782C13.8297 35.5918 14.5651 35.97 14.9124 36.4322L17.9766 40.6133C19.3248 42.4622 21.5311 42.4622 22.8793 40.6133L25.9435 36.4322C26.3316 35.907 26.9445 35.5918 27.5777 35.5918H30.6419C36.2801 35.5918 40.8559 30.9065 40.8559 25.1286V10.4632C40.8559 4.68534 36.2801 0 30.6419 0ZM12.2568 21.0105C11.1128 21.0105 10.214 20.065 10.214 18.9095C10.214 17.7539 11.1332 16.8084 12.2568 16.8084C13.3803 16.8084 14.2996 17.7539 14.2996 18.9095C14.2996 20.065 13.4007 21.0105 12.2568 21.0105ZM20.428 21.0105C19.284 21.0105 18.3852 20.065 18.3852 18.9095C18.3852 17.7539 19.3044 16.8084 20.428 16.8084C21.5515 16.8084 22.4708 17.7539 22.4708 18.9095C22.4708 20.065 21.5719 21.0105 20.428 21.0105ZM28.5991 21.0105C27.4552 21.0105 26.5563 20.065 26.5563 18.9095C26.5563 17.7539 27.4756 16.8084 28.5991 16.8084C29.7227 16.8084 30.6419 17.7539 30.6419 18.9095C30.6419 20.065 29.7431 21.0105 28.5991 21.0105Z" fill="#292D32"/>
</svg>
