<svg width="41" height="42" viewBox="0 0 41 42" fill="none" xmlns="http://www.w3.org/2000/svg">
<path d="M40.8064 19.7614C40.1122 7.58177 29.3523 -1.80502 16.959 0.294939C8.4245 1.74391 1.5847 8.86273 0.257569 17.6405C-0.518289 22.7224 0.502618 27.5313 2.72811 31.5002L0.910944 38.4511C0.502598 40.026 1.91135 41.454 3.42224 41.013L10.0783 39.1231C13.1001 40.95 16.6323 42 20.4095 42C31.9249 42 41.4802 31.5632 40.8064 19.7614ZM30.3936 28.8123C30.2098 29.1903 29.9852 29.5472 29.6994 29.8832C29.189 30.4502 28.6377 30.8702 28.0252 31.1222C27.4126 31.3952 26.7389 31.5212 26.0243 31.5212C24.983 31.5212 23.86 31.2694 22.6962 30.7444C21.512 30.2194 20.3482 29.5262 19.1845 28.6653C18.0003 27.7833 16.8977 26.7963 15.836 25.7253C14.7743 24.6333 13.8351 23.4784 12.9775 22.2814C12.1404 21.0844 11.4667 19.8874 10.9767 18.6905C10.4867 17.4935 10.2417 16.3386 10.2417 15.2466C10.2417 14.5326 10.3642 13.8396 10.6092 13.2097C10.8542 12.5587 11.2422 11.9707 11.7934 11.4457C12.4468 10.7737 13.1613 10.4587 13.9168 10.4587C14.2026 10.4587 14.4884 10.5217 14.7538 10.6477C15.0193 10.7737 15.2643 10.9627 15.4481 11.2357L17.8165 14.6796C18.0003 14.9526 18.1432 15.1836 18.2248 15.4146C18.3269 15.6456 18.3678 15.8556 18.3678 16.0656C18.3678 16.3176 18.2861 16.5696 18.1432 16.8215C18.0003 17.0735 17.8165 17.3255 17.5715 17.5775L16.7956 18.4175C16.6731 18.5435 16.6323 18.6695 16.6323 18.8375C16.6323 18.9215 16.6527 19.0055 16.6731 19.0895C16.714 19.1735 16.7344 19.2365 16.7548 19.2995C16.9386 19.6564 17.2652 20.0974 17.7144 20.6434C18.184 21.1894 18.674 21.7564 19.2049 22.3024C19.7561 22.8694 20.287 23.3734 20.8383 23.8564C21.3691 24.3184 21.8183 24.6333 22.1654 24.8223C22.2266 24.8433 22.2879 24.8853 22.3491 24.9063C22.4308 24.9483 22.5125 24.9483 22.6146 24.9483C22.7983 24.9483 22.9208 24.8853 23.0433 24.7593L23.8192 23.9614C24.0846 23.6884 24.3296 23.4994 24.5542 23.3734C24.7992 23.2264 25.0238 23.1424 25.2892 23.1424C25.4934 23.1424 25.6976 23.1844 25.9222 23.2894C26.1468 23.3944 26.3918 23.5204 26.6368 23.7094L30.0261 26.1873C30.2915 26.3763 30.4752 26.6073 30.5978 26.8593C30.6998 27.1323 30.7611 27.3843 30.7611 27.6783C30.6386 28.0353 30.5569 28.4343 30.3936 28.8123Z" fill="black"/>
</svg>
